# xmcd
#
# Track frame offsets: 
#        150
#        16221
#        32849
#        54487
#
# Disc length: 956 seconds
#
# Revision: 0
# Processed by: cddbd v1.5.1PL2 Copyright (c) Steve Scherf et al.
# Submitted via: ExactAudioCopy v0.95a5
#
DISCID=2803ba04
DTITLE=The Streets - Never Went To Church
DYEAR=2006
DGENRE=Hip-Hop
TTITLE0=Never Went To Church (Album Version)
TTITLE1=Never Went To Church (Acoustic Version)
TTITLE2=Never Went To Church (Guillemots Remix)
TTITLE3=Prangin' Out (Instrumental)
EXTD=
EXTT0=
EXTT1=
EXTT2=
EXTT3=
PLAYORDER=
